<svg xmlns="http://www.w3.org/2000/svg" xmlns:xlink="http://www.w3.org/1999/xlink" width="32" height="30" viewBox="0 0 32 30">
    <defs>
        <path id="a" d="M0 .017h31.049v23.49H0z"/>
    </defs>
    <g fill="none" fill-rule="evenodd">
        <g transform="translate(0 6.338)">
            <mask id="b" fill="#fff">
                <use xlink:href="#a"/>
            </mask>
            <path fill="#1F1D3D" d="M28.295 20.494a3.498 3.498 0 0 1-.173.71c-2.81.367-5.75.24-8.57.26-3.82.026-7.643.007-11.462-.113-1.065-.033-2.15-.042-3.208-.188-1.939-.268-2.124-2.428-2.191-3.995-.086-1.985.172-3.981.413-5.947.365-2.97.86-5.934 1.6-8.834.026-.103.06-.2.097-.295.077-.006.154-.011.231-.011h16.56c1.055 0 1.993-.066 2.945.52 1.227.754 1.411 2.416 1.722 3.684a75.984 75.984 0 0 1 1.038 5.08c.408 2.343.704 4.703.98 7.066.082.693.11 1.367.018 2.063m2.552-5.044a111.062 111.062 0 0 0-1.216-8.008 68.964 68.964 0 0 0-1.102-4.787C28.155 1.258 27.3.296 25.83.07c-.679-.105-1.427-.021-2.107-.021H7.556c-1.29.066-2.346.815-3.34 1.583-1.213.94-1.957 1.782-2.328 3.286C1.214 7.653.775 10.45.422 13.242c-.249 1.973-.468 3.956-.414 5.947.045 1.59.271 3.7 2.192 3.995 2.688.413 5.543.266 8.251.297 3.884.044 7.77.041 11.653-.067 1.208-.034 2.426-.062 3.628-.197 1.787-.2 3.78-1.755 4.741-3.222.864-1.318.546-3.084.374-4.545" mask="url(#b)"/>
        </g>
        <path fill="#1F1D3D" d="M11.646 5.118c0-.967.098-1.854.544-2.737.146-.289.865-.41 1.618-.389 2.731.076 4.306 2.523 4.306 5.02v4.304c0 .877.682 1.418 1.28 1.418.484 0 1.382-.392 1.382-1.437V4.734c0-3.201-2.96-5.48-6.055-4.507-.735.232-1.342.727-1.948 1.18-.795.595-1.627 1.166-2.366 1.83-.99.893-1.424 2.201-1.424 3.503v4.501c0 .914.522 1.53 1.362 1.53.876 0 1.3-.597 1.3-1.455V5.118z"/>
    </g>
</svg>
