<svg xmlns="http://www.w3.org/2000/svg" width="26" height="27" viewBox="0 0 26 27">
    <path fill="#1E1A3C" fill-rule="evenodd" d="M23.04 10.44c-.442 3.77-2.865 6.815-5.563 9.293-1.32 1.213-2.752 2.38-3.97 3.72-1.363-1.788-3.183-3.214-4.825-4.722C5.97 16.239 3.68 13.229 3.05 9.51c-.363-2.147-.015-4.391 1.196-6.215.86-1.296 1.662-1.868 3.197-1.55 2.19.452 3.743 2.58 4.157 4.701.12.613 2.743-.627 2.86-1.224.13-.664.394-1.33.72-1.918.656-1.179 1.267-1.758 2.65-1.646 1.594.129 3.012 1.455 3.89 2.686 1.266 1.774 1.57 3.974 1.32 6.096m2.817-4.336c-.342-2.086-1.59-3.932-3.297-5.136-1.555-1.095-3.422-1.144-5.194-.6a9.081 9.081 0 0 0-3.87 2.366C12.57 1.334 11.12.336 9.392.062c-2.009-.32-4.07.65-5.67 1.777C1.967 3.076.75 4.95.25 7.03c-1.067 4.459 1.428 8.85 4.407 11.935 2.324 2.406 5.31 4.294 6.942 7.311.213.394 1.295.048 2.07-.424.158-.09.305-.19.429-.301.221-.183.367-.366.38-.518 1.603-2.813 4.422-4.657 6.648-6.92 3.132-3.185 5.488-7.392 4.73-12.008"/>
</svg>
