<svg xmlns="http://www.w3.org/2000/svg" width="22" height="23" viewBox="0 0 22 23">
    <path fill="#1E1A3C" fill-rule="evenodd" d="M6.993 14.438c-2.944-.95-4.677-3.905-4.81-6.853-.201-4.49 4.177-6.123 7.866-4.932 2.945.95 4.677 3.905 4.81 6.853-.199 4.41-3.94 6.2-7.866 4.932m14.967 6.4l-7.188-7.597c1.317-1.608 2.17-3.576 2.263-5.656-.217-4.836-4.776-8.817-9.691-7.231C3.424 1.619.194 5.34.007 9.506c-.221 4.919 5.087 8.717 9.69 7.231a10.672 10.672 0 0 0 2.874-1.453l7.263 7.677c.329.347 2.485-1.744 2.126-2.123"/>
</svg>
