<?xml version="1.0" encoding="UTF-8"?>
<svg width="36px" height="36px" viewBox="0 0 36 36" version="1.1" xmlns="http://www.w3.org/2000/svg" xmlns:xlink="http://www.w3.org/1999/xlink">
    <!-- Generator: Sketch 54.1 (76490) - https://sketchapp.com -->
    <title>Insta</title>
    <desc>Created with Sketch.</desc>
    <g id="Insta" stroke="none" stroke-width="1" fill="none" fill-rule="evenodd">
        <g id="Group" fill-rule="nonzero">
            <circle id="Oval" fill="#AF986D" cx="18" cy="18" r="18"></circle>
            <path d="M21,18 C21,19.6568542 19.6568542,21 18,21 C16.3431458,21 15,19.6568542 15,18 C15,16.3431458 16.3431458,15 18,15 C19.6568542,15 21,16.3431458 21,18 Z M25.327,14.364 C25.37,15.312 25.379,15.597 25.379,18 C25.379,20.403 25.369,20.688 25.327,21.637 C25.215,24.056 24.079,25.216 21.638,25.326 C20.688,25.369 20.404,25.379 18,25.379 C15.597,25.379 15.311,25.369 14.364,25.327 C11.918,25.216 10.785,24.054 10.675,21.638 C10.631,20.688 10.621,20.403 10.621,18 C10.621,15.597 10.631,15.312 10.674,14.364 C10.785,11.943 11.922,10.785 14.363,10.675 C15.313,10.631 15.597,10.622 18,10.622 C20.403,10.622 20.689,10.632 21.637,10.674 C24.077,10.785 25.215,11.943 25.327,14.364 L25.327,14.364 Z M22.621,18 C22.6455265,16.3326955 21.770077,14.781439 20.330098,13.9406262 C18.8901189,13.0998133 17.1088811,13.0998133 15.668902,13.9406262 C14.228923,14.781439 13.3534735,16.3326955 13.378,18 C13.378,20.5526601 15.4473399,22.622 18,22.622 C20.5526601,22.622 22.622,20.5526601 22.622,18 L22.621,18 Z M23.884,13.196 C23.884,12.5995325 23.4004675,12.116 22.804,12.116 C22.2075325,12.116 21.724,12.5995325 21.724,13.196 C21.724,13.7924675 22.2075325,14.276 22.804,14.276 C23.4004675,14.276 23.884,13.7924675 23.884,13.196 L23.884,13.196 Z M27,18 C27,15.556 26.99,15.25 26.946,14.29 C26.799,11.025 24.983,9.205 21.711,9.055 C20.751,9.01 20.445,9 18,9 C15.555,9 15.25,9.01 14.29,9.054 C11.02,9.204 9.205,11.017 9.054,14.289 C9.01,15.249 9,15.557 9,18 C9,20.445 9.01,20.75 9.054,21.71 C9.204,24.98 11.018,26.796 14.29,26.946 C15.25,26.99 15.555,27 18,27 C20.445,27 20.75,26.99 21.711,26.946 C24.976,26.796 26.799,24.983 26.946,21.71 C26.99,20.75 27,20.445 27,18 L27,18 Z" id="Shape" fill="#FFFFFF"></path>
        </g>
    </g>
</svg>