<svg xmlns="http://www.w3.org/2000/svg" width="169" height="58" viewBox="0 0 169 58">
    <path fill="#022E5E" fill-rule="evenodd" d="M149.654 11.588c-1.697-.359-3.758-.6-4.92-.376l-.259-.672c1.66-.23 3.427-.115 5.337.293 1.909.403 3.576 1.027 5.005 1.92l-.503.505c-.978-.677-2.96-1.31-4.66-1.669zm3.994 2.873c-1.427-.713-2.99-1.147-4.29-1.426-1.295-.275-2.898-.51-4.486-.45l.022-.681c1.57-.093 3.318.133 4.614.41 1.296.278 2.985.783 4.393 1.512l-.253.635zm2.797-3.249l2.108-5.124c.014.025.033.027.07.04a1.035 1.035 0 0 0 1.223-.819c.114-.571-.243-1.13-.798-1.248a1.045 1.045 0 0 0-1.223.817c-.075.356.036.7.302.959l-3.843 4.647-.036-.007 1.209-6.676c.517.094 1.052-.275 1.167-.83a1.063 1.063 0 0 0-.8-1.248 1.056 1.056 0 0 0-1.226.823c-.084.404.07.804.382 1.033l-3.3 5.821-.039-.008.197-6.984c.454-.034.83-.372.926-.83a1.065 1.065 0 0 0-.8-1.248 1.044 1.044 0 0 0-1.223.82c-.093.455.12.918.52 1.133l-2.558 6.483-.042-.01-.737-6.683a1 1 0 0 0 .758-.787c.113-.573-.244-1.132-.799-1.252a1.039 1.039 0 0 0-1.224.812c-.113.549.234 1.112.762 1.245l-1.53 6.602-.042-.01-1.694-5.825c.347-.13.584-.406.653-.754a1.067 1.067 0 0 0-.8-1.251 1.045 1.045 0 0 0-1.221.818 1.062 1.062 0 0 0 .798 1.248c.04.005.06.012.081-.004l-.084 5.548c-.04 2.45.933 2.709.794 4.062l.013.713c1.705-.077 3.43.187 4.827.484 1.397.295 3.08.767 4.615 1.529l.296-.643c.27-1.232 1.4-1.137 2.318-3.396zm-125.67.365c-1.697-.36-3.758-.6-4.921-.374l-.258-.674c1.66-.23 3.427-.115 5.337.293 1.907.401 3.574 1.028 5.003 1.922l-.5.504c-.98-.678-2.961-1.31-4.662-1.67zm3.994 2.872c-1.427-.714-2.992-1.147-4.288-1.425-1.297-.275-2.9-.511-4.488-.447l.022-.685c1.57-.093 3.318.135 4.613.414 1.298.275 2.986.782 4.394 1.507l-.253.636zm2.796-3.246l2.107-5.126c.016.025.035.028.074.038a1.035 1.035 0 0 0 1.222-.817 1.08 1.08 0 0 0-.148-.793 1.024 1.024 0 0 0-.65-.452 1.041 1.041 0 0 0-.922 1.772l-3.842 4.646-.038-.005 1.21-6.675c.516.095 1.052-.278 1.166-.83a1.06 1.06 0 0 0-.8-1.246c-.555-.114-1.108.26-1.226.82-.082.406.071.804.384 1.033L32.8 9.39l-.039-.01.199-6.983c.453-.035.83-.373.925-.83a1.07 1.07 0 0 0-.8-1.25 1.045 1.045 0 0 0-1.223.822c-.093.455.12.918.52 1.132l-2.558 6.484-.042-.008-.735-6.684c.38-.087.676-.396.756-.789.113-.572-.244-1.132-.8-1.253a1.043 1.043 0 0 0-1.223.817 1.069 1.069 0 0 0 .762 1.24l-1.53 6.605-.042-.011-1.694-5.826c.347-.13.583-.405.653-.753a1.067 1.067 0 0 0-.8-1.251 1.044 1.044 0 0 0-1.221.818 1.062 1.062 0 0 0 .797 1.248c.04.004.06.011.082-.005l-.084 5.55c-.039 2.447.933 2.707.792 4.06l.015.714c1.705-.077 3.43.185 4.826.483 1.397.296 3.08.768 4.616 1.531l.296-.644c.27-1.23 1.4-1.135 2.317-3.394zm128.422 43.782c-.724.34-1.115.452-1.729.452-.725 0-1.226-.17-2.061-.623v-16.27c1.502.34 1.948.456 3.4 1.022.502.912.782 1.594 1.004 2.276l.67 2.276c.056.06.111.342.278.74h.557c-.054-2.957-.11-5.292-.11-6.768 0-1.537.056-3.87.11-6.944h-.557c-.502 2.333-1.005 3.868-1.84 5.46-1.507.571-2.01.685-3.512.798V21.647c.723-.34 1.28-.453 2.061-.453.613 0 1.005.113 1.73.453.613 1.592.892 2.73 1.504 6.143l.114.855h.612c.056-4.38.224-7.168.782-10.694-3.29.114-5.69.17-7.418.17-1.45 0-3.906-.056-7.027-.17v.571c1.337.624 1.616.795 2.229 1.592l.113 3.808c0 1.934 0 3.071.054 6.257v9.445c0 7.793-.054 10.866-.167 15.814-.949.913-1.337 1.14-2.228 1.423v.57c3.177-.112 5.52-.171 7.138-.171 1.45 0 3.849.06 6.858.17L169 47.304h-.615c-.726 3.414-1.505 5.801-2.398 7.682zm-22.14-37.035v.57c1.45.512 1.674.625 2.286 1.193v35.95c-.726.573-1.002.687-2.453 1.197v.57c2.23-.112 3.96-.17 5.075-.17 1.114 0 2.846.058 5.074.17v-.57c-1.058-.339-1.45-.51-2.284-1.196v-35.95c.948-.624 1.282-.85 2.284-1.192v-.57c-2.173.113-3.846.17-4.909.17-1.17 0-2.843-.057-5.074-.17v-.002zm-8.533 0v.57c1.115.455 1.394.682 2.286 1.422v26.454l-.053 2.5c0 4.493-.669 5.804-2.903 5.804-2.118 0-2.731-1.252-2.731-5.406v-29.35c.948-.741 1.228-.91 2.342-1.421v-.571c-2.175.114-3.847.17-4.907.17-1.115 0-2.789-.056-5.02-.17v.57c.948.455 1.226.569 2.064 1.193l.389 28.501c.057 4.551.224 5.573 1.116 6.94 1.061 1.706 3.347 2.844 5.52 2.844 3.795 0 6.137-2.844 6.304-7.736l1.06-30.32c.892-.797 1.171-.967 2.119-1.421v-.571c-1.617.114-2.957.17-3.736.17-.893 0-2.176-.056-3.85-.17v-.002zm-18.572 30.833c-.332 3.415-.556 4.835-.835 5.917-.336 1.08-.891 1.65-1.618 1.65-.891 0-1.451-.628-1.896-2.048-.725-2.62-1.116-7.965-1.116-15.704 0-8.079.391-13.427 1.172-16.21.389-1.195 1.116-1.935 1.897-1.935.778 0 1.225.57 1.617 1.878.892 3.069 1.17 7.28 1.17 16.668 0 3.98-.112 6.882-.39 9.784zm-2.286-31.23c-5.464 0-8.811 7.96-8.811 21.158 0 11.778 3.234 19.118 8.366 19.118 5.353 0 8.7-7.68 8.7-19.97 0-12.572-3.123-20.307-8.255-20.307zM98.725 54.495c-.644.392-1.03.524-1.668.524-.451 0-.835-.066-1.48-.198-.126-4.058-.126-5.887-.126-9.618l.065-20.608.062-10.27c.833-.652 2.248-1.177 4.107-1.568v-.85c-2.952.129-5.26.195-6.736.195-1.412 0-3.72-.066-6.61-.194v.653c1.477.653 1.798.85 2.631 1.635.131 3.862.194 7.847.194 8.83v4.906c0 2.55 0 4.906-.063 7.391l-.065 17.144-.066 2.81c-.768.788-1.154.982-2.63 1.377v.652c3.532-.126 6.225-.194 8.021-.194 1.668 0 4.363.068 7.827.194l.835-15.767h-.708c-.835 4.776-2.052 9.159-3.59 12.956zM64.172 43.379v.569c1.226.396 1.561.567 2.621 1.195.055 1.991.055 3.242.055 4.435 0 1.313-.055 3.7-.167 6.6-3.402-.683-4.796-5.632-4.796-17.123 0-11.607 1.56-18.43 4.238-18.43 1.003 0 1.45.681 1.951 3.242l.95 4.32.668 4.099c.057.171.114.624.279 1.25h.56c.11-6.201.221-8.08.556-14.048-1.618-1.31-3.122-1.935-4.74-1.935-2.01 0-4.016 1.025-5.69 2.957-3.122 3.7-4.573 9.385-4.573 18.034 0 12.061 3.849 19.285 10.374 19.285 1.897 0 3.402-.51 5.132-1.652v-2.502c0-2.219.055-2.901.055-3.751l.167-4.84c0-.227.056-.791.056-1.706-1.616.113-2.955.172-3.737.172-.948 0-2.23-.06-3.96-.172zM45.712 17.95v.628c1.506.397 2.008.567 3.458 1.364.558 6.937.67 9.838.893 19.907L42.869 17.95c-1.506.114-2.68.17-3.459.17-.781 0-1.952-.056-3.513-.17v.571c.948.51 1.226.624 2.119 1.192.056 2.674.112 5.175.112 6.142v3.7c-.056 1.875-.056 3.753-.112 5.572l-.278 16.554-.057 3.756c-.893.74-1.228.913-2.341 1.423v.57c2.006-.171 3.624-.227 4.517-.227 1.171 0 2.731.056 4.962.227v-.57c-.556-.225-1.003-.339-1.226-.398-1.617-.512-1.73-.568-2.676-1.025v-1.535l-.448-10.07c-.167-3.07-.224-6.881-.334-11.32l-.056-4.723 1.228 3.244c5.298 14.45 7.025 19.398 9.368 26.965h.837c0-3.696.056-5.118.167-8.363l.893-29.922c.837-.512 1.058-.682 1.953-1.192v-.57c-1.841.17-3.347.226-4.182.226-1.117 0-2.566-.057-4.63-.227zm-21.081 0v.571c1.451.51 1.673.624 2.286 1.192v35.95c-.725.573-1.003.687-2.454 1.197v.57c2.232-.112 3.962-.171 5.077-.171 1.114 0 2.843.06 5.075.17v-.569c-1.06-.339-1.45-.51-2.286-1.197v-35.95c.947-.624 1.281-.85 2.286-1.192v-.57c-2.176.113-3.849.17-4.908.17-1.172 0-2.843-.057-5.076-.17zm-2.504 38.115c-.834-.523-.834-.46-1.281-1.045L13.532 29.5l6.928-15.564c.513-.393.641-.459 1.667-.981.192-.067.385-.198.706-.392v-.654c-2.053.127-3.72.193-4.746.193-1.091 0-2.694-.066-4.81-.193v.653c1.026.326 1.41.587 2.437 1.373L9.43 34.605H9.17V13.936c1.026-.653 1.54-.914 3.015-1.373v-.653c-2.694.127-4.746.193-6.092.193-1.348 0-3.4-.066-6.094-.193v.653c1.796.587 2.117.72 2.95 1.373v41.085c-.577.584-.833.78-1.861 1.24-.19.066-.447.198-.769.394v.653c2.694-.194 4.938-.26 6.222-.26 1.667 0 3.785.066 6.799.26v-.653c-2.052-.654-2.759-.914-4.17-1.634v-19.5h.45l.32 1.311 2.631 9.812c1.603 5.888 2.052 7.788 2.63 10.664 1.667-.194 3.077-.26 3.782-.26 1.09 0 2.374.066 4.235.26v-.653c-.26-.13-.45-.196-.516-.26l-.576-.328z"/>
</svg>
