<?xml version="1.0" encoding="UTF-8"?>
<svg width="36px" height="36px" viewBox="0 0 36 36" version="1.1" xmlns="http://www.w3.org/2000/svg" xmlns:xlink="http://www.w3.org/1999/xlink">
    <!-- Generator: Sketch 54.1 (76490) - https://sketchapp.com -->
    <title>Pinterest</title>
    <desc>Created with Sketch.</desc>
    <g id="Pinterest" stroke="none" stroke-width="1" fill="none" fill-rule="evenodd">
        <g id="Group" fill="#AF986D" fill-rule="nonzero">
            <circle id="Oval" cx="18" cy="18" r="18"></circle>
        </g>
        <path d="M16.3953803,21.2271931 C15.8693803,23.9811931 15.2283803,26.6211931 13.3273803,28.0001931 C12.7413803,23.8381931 14.1883803,20.7131931 14.8613803,17.3951931 C13.7143803,15.4651931 14.9993803,11.5831931 17.4163803,12.5401931 C20.3913803,13.7161931 14.8403803,19.7121931 18.5663803,20.4621931 C22.4573803,21.2431931 24.0463803,13.7121931 21.6323803,11.2631931 C18.1473803,7.7251931 11.4863803,11.1801931 12.3063803,16.2451931 C12.5063803,17.4831931 13.7843803,17.8581931 12.8173803,19.5671931 C10.5873803,19.0731931 9.92038029,17.3131931 10.0073803,14.9671931 C10.1443803,11.1271931 13.4553803,8.4401931 16.7773803,8.0671931 C20.9783803,7.5971931 24.9213803,9.6101931 25.4673803,13.5611931 C26.0793803,18.0221931 23.5703803,22.8541931 19.0773803,22.5061931 C17.8593803,22.4111931 17.3493803,21.8071931 16.3953803,21.2271931 Z" id="Path" fill="#FFFFFF" fill-rule="nonzero"></path>
    </g>
</svg>